<svg xmlns="http://www.w3.org/2000/svg" viewBox="0 0 100 100">
  <defs>
    <linearGradient id="gradient" x1="0%" y1="0%" x2="100%" y2="100%">
      <stop offset="0%" style="stop-color:#4F46E5;stop-opacity:1" />
      <stop offset="100%" style="stop-color:#7C3AED;stop-opacity:1" />
    </linearGradient>
  </defs>
  
  <!-- Background circle -->
  <circle cx="50" cy="50" r="45" fill="url(#gradient)" />
  
  <!-- Calculator icon -->
  <rect x="25" y="20" width="50" height="60" rx="8" fill="white" opacity="0.9"/>
  
  <!-- Calculator display -->
  <rect x="30" y="25" width="40" height="12" rx="2" fill="#4F46E5" opacity="0.3"/>
  
  <!-- Calculator buttons (simplified grid) -->
  <rect x="30" y="42" width="8" height="6" rx="1" fill="#4F46E5" opacity="0.7"/>
  <rect x="41" y="42" width="8" height="6" rx="1" fill="#4F46E5" opacity="0.7"/>
  <rect x="52" y="42" width="8" height="6" rx="1" fill="#4F46E5" opacity="0.7"/>
  <rect x="63" y="42" width="8" height="6" rx="1" fill="#F59E0B" opacity="0.8"/>
  
  <rect x="30" y="52" width="8" height="6" rx="1" fill="#4F46E5" opacity="0.7"/>
  <rect x="41" y="52" width="8" height="6" rx="1" fill="#4F46E5" opacity="0.7"/>
  <rect x="52" y="52" width="8" height="6" rx="1" fill="#4F46E5" opacity="0.7"/>
  <rect x="63" y="52" width="8" height="6" rx="1" fill="#F59E0B" opacity="0.8"/>
  
  <rect x="30" y="62" width="8" height="6" rx="1" fill="#4F46E5" opacity="0.7"/>
  <rect x="41" y="62" width="8" height="6" rx="1" fill="#4F46E5" opacity="0.7"/>
  <rect x="52" y="62" width="8" height="6" rx="1" fill="#4F46E5" opacity="0.7"/>
  <rect x="63" y="62" width="8" height="8" rx="1" fill="#10B981" opacity="0.8"/>
  
  <!-- Brazilian flag colors accent -->
  <circle cx="75" cy="25" r="8" fill="#10B981" opacity="0.8"/>
  <circle cx="75" cy="25" r="5" fill="#F59E0B" opacity="0.9"/>
</svg> 